<svg xmlns="http://www.w3.org/2000/svg" viewBox="0 0 24 24" fill="none" aria-hidden="true">
  <path d="M8.3 18.25c1.05.72 2.3 1.1 3.7 1.1s2.65-.38 3.7-1.1" stroke="currentColor" stroke-width="1.65" stroke-linecap="round"/>
  <path d="M7.05 12.85c-.45 1.15-1.23 2.32-2.3 3.45 1.14.24 2.17.22 3.08-.04M16.17 16.26c.91.26 1.94.28 3.08.04-1.07-1.13-1.85-2.3-2.3-3.45" stroke="currentColor" stroke-width="1.65" stroke-linecap="round" stroke-linejoin="round"/>
  <path d="M7.35 11.4c0-4.16 1.78-6.75 4.65-6.75s4.65 2.59 4.65 6.75c0 4.02-1.78 6.25-4.65 6.25s-4.65-2.23-4.65-6.25Z" stroke="currentColor" stroke-width="1.65" stroke-linejoin="round"/>
  <path d="M10 10.25h.01M14 10.25h.01" stroke="currentColor" stroke-width="2.2" stroke-linecap="round"/>
</svg>
