<svg xmlns="http://www.w3.org/2000/svg" viewBox="0 0 24 24" fill="none" aria-hidden="true">
  <path d="M10.6 16.35c-.68.18-1.43.23-2.2.12l-2.9 1.28.7-2.34c-1.4-.98-2.25-2.4-2.25-4 0-2.86 2.77-5.18 6.2-5.18 2.86 0 5.27 1.62 5.98 3.82" stroke="currentColor" stroke-width="1.65" stroke-linecap="round" stroke-linejoin="round"/>
  <path d="M13.95 11.03c3 0 5.43 1.95 5.43 4.36 0 1.35-.76 2.55-1.95 3.35l.55 2.01-2.5-1.05c-.48.08-.99.12-1.53.12-3 0-5.43-1.95-5.43-4.43 0-2.41 2.43-4.36 5.43-4.36Z" stroke="currentColor" stroke-width="1.65" stroke-linecap="round" stroke-linejoin="round"/>
  <path d="M8.1 10.35h.01M12.05 10.35h.01M12.3 15.25h.01M15.65 15.25h.01" stroke="currentColor" stroke-width="2" stroke-linecap="round"/>
</svg>
